<svg width="230.17" height="230.17" xmlns="http://www.w3.org/2000/svg">

 <g>
  <title>background</title>
  <rect fill="none" id="canvas_background" height="602" width="802" y="-1" x="-1"/>
 </g>
 <g>
  <title>Layer 1</title>
  <g stroke="null" id="svg_1">
   <g stroke="null" id="svg_2">
    <path stroke="null" id="svg_3" fill="#ffffff" d="m221.014,50.86854c0,-0.2197 0.16606,-0.43355 0.15505,-0.65075l-64.44184,56.53756l64.36477,54.7315c0.03762,-0.39095 -0.07798,-0.78524 -0.07798,-1.18455l0,-109.43376z"/>
    <path stroke="null" id="svg_4" fill="#ffffff" d="m146.89029,115.45568l-26.30702,23.04607c-1.33122,1.16617 -3.05053,1.75093 -4.77075,1.75093c-1.68444,0 -3.36888,-0.5597 -4.69093,-1.68159l-26.23546,-22.25999l-64.78497,56.85834c1.57527,0.51542 3.26613,0.91556 5.03681,0.91556l181.35002,0c2.62942,0 5.09553,-0.72927 7.23961,-1.81692l-66.83731,-56.81239z"/>
    <path stroke="null" id="svg_5" fill="#ffffff" d="m115.73728,125.35978l98.3472,-86.26071c-2.22666,-1.20543 -4.81846,-2.01407 -7.5965,-2.01407l-181.35002,0c-3.61751,0 -6.93227,1.27895 -9.51398,3.22952l100.1133,85.04525z"/>
    <path stroke="null" id="svg_6" fill="#ffffff" d="m10,52.96948l0,107.33114c0,1.23216 0.31102,2.42005 0.64864,3.55532l63.98128,-56.09983l-64.62992,-54.78663z"/>
   </g>
   <g stroke="null" id="svg_7"/>
   <g stroke="null" id="svg_8"/>
   <g stroke="null" id="svg_9"/>
   <g stroke="null" id="svg_10"/>
   <g stroke="null" id="svg_11"/>
   <g stroke="null" id="svg_12"/>
   <g stroke="null" id="svg_13"/>
   <g stroke="null" id="svg_14"/>
   <g stroke="null" id="svg_15"/>
   <g stroke="null" id="svg_16"/>
   <g stroke="null" id="svg_17"/>
   <g stroke="null" id="svg_18"/>
   <g stroke="null" id="svg_19"/>
   <g stroke="null" id="svg_20"/>
   <g stroke="null" id="svg_21"/>
  </g>
 </g>
</svg>