<?xml version="1.0" encoding="UTF-8"?>
<svg xmlns="http://www.w3.org/2000/svg" xmlns:xlink="http://www.w3.org/1999/xlink" width="30pt" height="30pt" viewBox="0 0 30 30" version="1.1">
<g id="surface1">
<rect x="0" y="0" width="30" height="30" style="fill:rgb(78.823529%,20.784314%,23.921569%);fill-opacity:1;stroke:none;"/>
<path style=" stroke:none;fill-rule:nonzero;fill:rgb(100%,100%,100%);fill-opacity:1;" d="M 10.570312 25.144531 C 5.675781 23.101562 2.488281 17.269531 4.515625 11.347656 C 6.519531 5.488281 13.007812 2.421875 18.847656 4.589844 C 24.703125 6.765625 27.601562 13.226562 25.332031 19.019531 C 22.980469 25.019531 16.679688 27.140625 11.953125 25.644531 C 12.304688 24.773438 12.707031 23.910156 13.003906 23.015625 C 13.296875 22.117188 13.488281 21.179688 13.707031 20.3125 C 13.898438 20.476562 14.089844 20.644531 14.292969 20.804688 C 15.335938 21.628906 16.515625 21.710938 17.753906 21.410156 C 19.070312 21.09375 20.109375 20.351562 20.878906 19.253906 C 22.179688 17.398438 22.640625 15.300781 22.324219 13.09375 C 22 10.8125 20.648438 9.160156 18.53125 8.332031 C 15.339844 7.078125 12.3125 7.5 9.691406 9.796875 C 7.675781 11.5625 7 14.554688 7.96875 16.886719 C 8.304688 17.695312 8.835938 18.328125 9.636719 18.710938 C 10.046875 18.902344 10.21875 18.824219 10.335938 18.398438 C 10.34375 18.367188 10.355469 18.335938 10.367188 18.304688 C 10.59375 17.710938 10.539062 17.222656 10.136719 16.648438 C 9.40625 15.597656 9.539062 14.386719 9.890625 13.226562 C 10.558594 11.023438 12.527344 9.554688 14.835938 9.53125 C 15.453125 9.527344 16.089844 9.582031 16.6875 9.726562 C 18.46875 10.160156 19.617188 11.539062 19.734375 13.363281 C 19.824219 14.828125 19.597656 16.25 18.960938 17.585938 C 18.644531 18.25 18.230469 18.835938 17.609375 19.253906 C 17.027344 19.644531 16.394531 19.804688 15.703125 19.621094 C 14.753906 19.375 14.210938 18.507812 14.453125 17.554688 C 14.703125 16.570312 15.023438 15.601562 15.269531 14.613281 C 15.371094 14.195312 15.425781 13.742188 15.382812 13.316406 C 15.269531 12.160156 14.175781 11.617188 13.152344 12.183594 C 12.433594 12.578125 12.089844 13.242188 11.929688 14.007812 C 11.761719 14.796875 11.84375 15.574219 12.101562 16.339844 C 12.152344 16.496094 12.160156 16.683594 12.125 16.84375 C 11.65625 18.871094 11.160156 20.890625 10.71875 22.925781 C 10.59375 23.519531 10.617188 24.144531 10.574219 24.753906 C 10.566406 24.871094 10.570312 24.992188 10.570312 25.144531 Z M 10.570312 25.144531 "/>
</g>
</svg>
