<?xml version="1.0" encoding="UTF-8"?>
<svg xmlns="http://www.w3.org/2000/svg" xmlns:xlink="http://www.w3.org/1999/xlink" width="30pt" height="30pt" viewBox="0 0 30 30" version="1.1">
<g id="surface1">
<rect x="0" y="0" width="30" height="30" style="fill:rgb(31.372549%,67.058824%,94.509804%);fill-opacity:1;stroke:none;"/>
<path style=" stroke:none;fill-rule:nonzero;fill:rgb(100%,100%,100%);fill-opacity:1;" d="M 3.972656 22.238281 C 5.972656 23.503906 8.339844 24.238281 10.878906 24.238281 C 18.011719 24.238281 23.792969 18.453125 23.792969 11.324219 C 23.792969 11.144531 23.789062 10.96875 23.78125 10.792969 C 24.039062 10.589844 25.636719 9.308594 26.027344 8.488281 C 26.027344 8.488281 24.730469 9.027344 23.460938 9.152344 C 23.460938 9.152344 23.457031 9.152344 23.453125 9.152344 C 23.453125 9.152344 23.457031 9.152344 23.460938 9.148438 C 23.578125 9.070312 25.210938 7.960938 25.433594 6.632812 C 25.433594 6.632812 24.515625 7.125 23.234375 7.550781 C 23.019531 7.621094 22.796875 7.691406 22.570312 7.757812 C 21.742188 6.875 20.566406 6.320312 19.261719 6.320312 C 16.757812 6.320312 14.730469 8.351562 14.730469 10.851562 C 14.730469 11.203125 14.769531 11.546875 14.847656 11.878906 C 14.496094 11.863281 9.171875 11.566406 5.546875 7.175781 C 5.546875 7.175781 3.378906 10.132812 6.835938 13.171875 C 6.835938 13.171875 5.785156 13.132812 4.878906 12.589844 C 4.878906 12.589844 4.546875 16.171875 8.460938 17.089844 C 8.460938 17.089844 7.691406 17.378906 6.460938 17.171875 C 6.460938 17.171875 7.148438 20.066406 10.628906 20.335938 C 10.628906 20.335938 7.878906 22.820312 3.972656 22.238281 Z M 3.972656 22.238281 "/>
</g>
</svg>
