<?xml version="1.0" encoding="UTF-8"?>
<svg xmlns="http://www.w3.org/2000/svg" xmlns:xlink="http://www.w3.org/1999/xlink" width="30pt" height="30pt" viewBox="0 0 30 30" version="1.1">
<g id="surface1">
<rect x="0" y="0" width="30" height="30" style="fill:rgb(10.588235%,84.313725%,25.490196%);fill-opacity:1;stroke:none;"/>
<path style=" stroke:none;fill-rule:nonzero;fill:rgb(100%,100%,100%);fill-opacity:1;" d="M 4.507812 25.503906 L 5.976562 20.285156 C 5.035156 18.679688 4.535156 16.851562 4.535156 14.976562 C 4.535156 9.199219 9.234375 4.496094 15.011719 4.496094 C 20.789062 4.496094 25.492188 9.199219 25.492188 14.976562 C 25.492188 20.753906 20.789062 25.453125 15.011719 25.453125 C 13.214844 25.453125 11.449219 24.992188 9.890625 24.117188 Z M 10.167969 22.210938 L 10.488281 22.40625 C 11.847656 23.238281 13.410156 23.675781 15.011719 23.675781 C 19.8125 23.675781 23.714844 19.773438 23.714844 14.976562 C 23.714844 10.179688 19.8125 6.273438 15.011719 6.273438 C 10.214844 6.273438 6.3125 10.179688 6.3125 14.976562 C 6.3125 16.648438 6.789062 18.269531 7.6875 19.667969 L 7.902344 20.003906 L 7.058594 23.011719 Z M 10.167969 22.210938 "/>
<path style=" stroke:none;fill-rule:nonzero;fill:rgb(100%,100%,100%);fill-opacity:1;" d="M 12.070312 10.097656 L 11.390625 10.0625 C 11.175781 10.050781 10.96875 10.121094 10.804688 10.261719 C 10.476562 10.546875 9.949219 11.101562 9.789062 11.820312 C 9.546875 12.898438 9.917969 14.214844 10.882812 15.53125 C 11.851562 16.847656 13.648438 18.953125 16.832031 19.851562 C 17.855469 20.144531 18.664062 19.949219 19.285156 19.550781 C 19.777344 19.234375 20.117188 18.726562 20.238281 18.15625 L 20.347656 17.648438 C 20.382812 17.488281 20.300781 17.324219 20.152344 17.253906 L 17.855469 16.195312 C 17.703125 16.128906 17.527344 16.171875 17.425781 16.300781 L 16.527344 17.46875 C 16.457031 17.558594 16.339844 17.59375 16.234375 17.558594 C 15.617188 17.339844 13.546875 16.472656 12.414062 14.285156 C 12.363281 14.191406 12.375 14.074219 12.445312 13.996094 L 13.308594 12.996094 C 13.394531 12.894531 13.417969 12.753906 13.367188 12.628906 L 12.375 10.3125 C 12.320312 10.1875 12.203125 10.105469 12.070312 10.097656 Z M 12.070312 10.097656 "/>
</g>
</svg>
